<svg xmlns="http://www.w3.org/2000/svg" width="29" height="22.556" viewBox="0 0 29 22.556">
  <path id="Icon_awesome-book-open" data-name="Icon awesome-book-open" d="M27.3,2.252c-2.759.157-8.243.727-11.628,2.8a.774.774,0,0,0-.366.663v18.32a.8.8,0,0,0,1.172.679c3.483-1.753,8.52-2.231,11.011-2.362A1.57,1.57,0,0,0,29,20.808V3.8a1.578,1.578,0,0,0-1.7-1.546Zm-13.971,2.8C9.944,2.979,4.46,2.41,1.7,2.252A1.579,1.579,0,0,0,0,3.8v17.01a1.57,1.57,0,0,0,1.511,1.544c2.492.131,7.532.61,11.015,2.364a.794.794,0,0,0,1.169-.678V5.705A.758.758,0,0,0,13.329,5.051Z" transform="translate(0 -2.25)" fill="#351d26"/>
</svg>
