<svg xmlns="http://www.w3.org/2000/svg" width="29.336" height="25.669" viewBox="0 0 29.336 25.669">
  <path id="Icon_awesome-gift" data-name="Icon awesome-gift" d="M1.833,26.085a1.832,1.832,0,0,0,1.833,1.833h9.167V18.751h-11ZM16.5,27.919h9.167A1.832,1.832,0,0,0,27.5,26.085V18.751h-11Zm11-18.335H25.09a5,5,0,0,0,.579-2.292A5.05,5.05,0,0,0,20.627,2.25c-2.384,0-3.925,1.22-5.9,3.913C12.748,3.47,11.207,2.25,8.824,2.25A5.05,5.05,0,0,0,3.782,7.292,4.926,4.926,0,0,0,4.36,9.584H1.833A1.832,1.832,0,0,0,0,11.417V16a.919.919,0,0,0,.917.917h27.5A.919.919,0,0,0,29.336,16V11.417A1.832,1.832,0,0,0,27.5,9.584Zm-18.684,0A2.292,2.292,0,1,1,8.818,5c1.14,0,1.982.189,4.933,4.584H8.818Zm11.809,0H15.693C18.638,5.2,19.458,5,20.627,5a2.292,2.292,0,0,1,0,4.584Z" transform="translate(0 -2.25)" fill="#351d26"/>
</svg>
